<?xml version="1.0" encoding="utf-8"?>

<!DOCTYPE svg PUBLIC "-//W3C//DTD SVG 1.1//EN" "http://www.w3.org/Graphics/SVG/1.1/DTD/svg11.dtd">
<svg version="1.1" id="Layer_1" xmlns="http://www.w3.org/2000/svg" xmlns:xlink="http://www.w3.org/1999/xlink" x="0px" y="0px"
    viewBox="0 0 2095.429 1636.254" enable-background="new 0 0 2095.429 1636.254" xml:space="preserve">
<path d="M193.413,18.866c39.317-4.411,58.171,10.359,92.171,30.895c28.565,17.328,18.076,20.323,25.442,29.26
	c3.827,5.272,4.658,3.146,47.468,14.121c7.509,1.911,26.419,1.822,20.358,22.262c-2.434,9.08-10.66,12.454-3.751,18.387
	c4.959,5.028,15.672,2.986,11.299,21.276c17.081,3.736,5.346,17.583,15.263,22.822c60.226,39.167-43.332,73.282-16.316,102.54
	c11.758,12.295,18.309,28.365,28.813,41.612c47.937,22.396,1.761-0.144,56.125,30.145c2.43,1.601,5.42,1.254,8.175,1.601
	c7.178,0.75,13.998,3.259,20.918,5.185c25.876,7.644,128.952,22.264,186.75,67.121c24.019,18.213,27.956,39.945,31.881,52.552
	c1.333,1.064,3.102,1.4,4.692,1.993c28.205,8.643,19.031,10.201,32.318,10.672c12.844,0.045,25.576,1.971,38.219,4.02
	c6.416,0.773,12.732-0.952,19.025-1.915c74.108-10.54,75.024,3.116,118.71,8.264c64.133,6.254,140.331,56.879,165.619,70.861
	c16.976,9.451,34.971,17.144,51.041,28.152c45.472,29.378,201.307,10.542,369.972,102.686c18.835,10.403,38.6,18.913,57.894,28.398
	c27.122,13.863,51.903,31.746,77.983,47.39c37.902,20.953,42.654,11.462,87.77,76.964c30.315,41.204,17.72,65.725,17.424,101.432
	c-0.487,39.804,5.141,50.241,8.063,131.05c5.661,195.84,42.499,346.37,46.158,355.347c6.684,20.77,52.66,49.362,75.688,58.879
	c44.523,18.303,51.007,14.112,69.069,20.112c24.809,8.177,36.79,1.082,64.545,10.974c6.249,2.587,13.057-0.885,19.518,0.773
	c4.737,2.542,9.373,6.036,10.661,11.59c3.707-0.134,7.458-0.034,11.131,0.717c2.217,3.124,6.114,4.849,7.536,8.578
	c4.189,10.892-2.335,28.159-31.433,34.031c-4.972,1.019-10.101,0.974-14.961,2.441c-4.591,1.254-9.35,0.168-13.774-1.12
	c-3.83,6.271-11.288,9.854-18.555,7.995c-7.751,12.3-17.076,9.731-30.167,4.815c-10.646,2.022-30.126,12.601-51.421,11.444
	c-9.026-1.197-21.182,7.5-55.497,0.089c-12.419-2.643-25.296-2.273-37.603-5.465c-24.895-5.087-22.185-0.141-40.234,2.262
	c-19.126,3.774-38.924,3.583-58.028-0.246c-26.811-3.396-38.579-32.684-34.423-57.603c8.382-61.137,25.738-70.593-47.2-227.264
	c-11.142-23.997-21.422-48.398-33.426-71.981c-27.863-56.057-44.61-53.967-54.12-102.574
	c-23.729-111.318,33.47-181.385,10.996-199.09c-75.415,2.499-193.444-14.528-269.929-40.29
	c-54.631-17.188-46.721-16.378-57.121-15.073c-32.365,4.403-70.145,29.489-150.737,14.591c-9.342-1.877-23.166-0.835-43.952-6.181
	c39.684,50.984,80.295,158.772,81.779,242.594c21.659,394.695-422.569,643.028-702.352,320.51
	c-171.238-191.613-129.374-577.773,146.291-704.087c-80.364-18.375-137.761-57.321-163.099-72.787
	c-35.51-22.311-64.716-58.095-74.612-66.662c-20.586-18.191-27.861-34.155-44.669-63.818
	c-35.893-66.554-15.902-95.749-23.415-136.347c-0.493-2.116-0.694-4.457-2.262-6.103c-7.491-8.522-14.098-17.861-22.665-25.386
	c-6.741-5.935-12.217-13.102-18.712-19.283c-31.891-31.827-29.283-32.05-50.324-40.895c-10.173,2.241-13.426,5.058-30.75-2.609
	c-8.287,4.714-18.891,7.335-27.95,3.337c-5.409-2.15-7.458-8.309-12.239-11.187c-7.1-1.433-15.487,0.851-21.489-4.345
	c-5.151-3.74-5.14-10.829-9.059-15.442c-5.341-4.95-14.3-4.334-18.6-10.683c-3.583-4.759-2.744-10.952-2.721-16.506
	c-2.822-4.546-8.701-5.924-11.926-10.112c-3.225-4.95-2.71-11.108-4.054-16.64c-1.657-7.021-3.438-14.11-3.415-21.377
	c0.086-8.987,21.726-42.642,23.023-46.002c1.538-15.375-2.185-25.994,12.531-61.365c23.434-39.606,55.831-70.448,80.189-84.344
	C155.407,26.715,174.365,21.34,193.413,18.866 M50.716,227.059c1.333-0.526,2.665-1.053,3.998-1.568
	c-0.515-1.68-1.03-3.359-1.557-5.039C52.34,222.659,51.522,224.853,50.716,227.059z"/>
</svg>
